<?xml version="1.0" encoding="UTF-8"?>
<!-- Generator: Adobe Illustrator 21.0.2, SVG Export Plug-In . SVG Version: 6.00 Build 0)  -->
<svg version="1.1" id="Capa_1" xmlns="http://www.w3.org/2000/svg" xmlns:xlink="http://www.w3.org/1999/xlink" x="0px" y="0px" viewBox="0 0 322 293" style="enable-background:new 0 0 322 293;" xml:space="preserve">
<style type="text/css">
	.st0{fill:#9D7542;}
	.st1{fill:#4C361E;}
	.st2{fill:url(#SVGID_1_);}
	.st3{fill:url(#SVGID_2_);}
	.st4{fill:url(#SVGID_3_);}
	.st5{fill:url(#SVGID_4_);}
	.st6{fill:url(#SVGID_5_);}
	.st7{fill:#A8B521;}
	.st8{fill:#596720;}
	.st9{fill:none;}
	.st10{fill:#FFFFFF;}
	.st11{fill:#010001;}
	.st12{fill:none;stroke:#010001;stroke-width:6.24;stroke-linecap:round;stroke-linejoin:round;stroke-miterlimit:10;}
</style>
<g>
	<g>
		<path class="st0" d="M311.5,110.2c-12.9,0-23.4-11.4-23.4-25.6c0-0.1,0-0.2,0-0.3c-1.1,0.2-2.2,0.3-3.3,0.3c-11.5,0-21-9.1-23-21    c-1.9-0.2-3.8-0.3-5.8-0.3c-36.3,0-65.1,28.7-67,66c-1.9,36.3,30.7,66.8,67,65.5c37.9-1.4,61.4-29.5,65.8-65.8    c0.8-7-1.1-13.8-3.2-20.2C316.4,109.7,314,110.2,311.5,110.2z"/>
	</g>
	<path class="st1" d="M251.7,98.4c0,5.2-1.5,9.4-6.7,9.4s-12.1-4.2-12.1-9.4c0-5.2,4.2-6.7,9.4-6.7S251.7,93.3,251.7,98.4z"/>
	<path class="st1" d="M264.3,160.7c5.1,0.8,9,3,8.2,8.1c-0.8,5.1-6.1,11.3-11.2,10.4c-5.1-0.8-6-5.2-5.1-10.3   C257,163.8,259.2,159.9,264.3,160.7z"/>
	<path class="st1" d="M294.9,124.5c5.1,0.8,9.1,2.6,8.5,6.5s-5.6,8.4-10.7,7.6c-5.1-0.8-6.1-4.2-5.5-8.1   C287.8,126.6,289.8,123.7,294.9,124.5z"/>
	<path class="st1" d="M221.3,121.4c5.1,0.8,5.9,2.5,5.3,6.4s-2.4,8.5-7.5,7.7c-5.1-0.8-6.1-4.2-5.5-8.1S216.2,120.6,221.3,121.4z"/>
	<path class="st1" d="M259.2,125c4.5,2.4,6.2,0.1,5.7,3.6c-0.6,3.5-3.1,9.7-7.7,9c-4.6-0.7-5.5-3.7-4.9-7.2   C252.8,126.8,255.1,122.8,259.2,125z"/>
	<path class="st1" d="M229.9,156.3c3.7,0.6,6.6,1.9,6.2,4.7s-4.1,6.1-7.8,5.5c-3.7-0.6-4.4-3.1-4-5.9S226.2,155.7,229.9,156.3z"/>
</g>
<radialGradient id="SVGID_1_" cx="122.5629" cy="275.9541" r="26.7861" gradientTransform="matrix(0.9925 -0.1222 0.1222 0.9925 -17.0838 14.1651)" gradientUnits="userSpaceOnUse">
	<stop offset="5.749220e-02" style="stop-color:#AFBE12"/>
	<stop offset="0.4825" style="stop-color:#ADBC13"/>
	<stop offset="0.6652" style="stop-color:#A6B515"/>
	<stop offset="0.8015" style="stop-color:#9AA818"/>
	<stop offset="0.9139" style="stop-color:#8A971D"/>
	<stop offset="1" style="stop-color:#778322"/>
</radialGradient>
<path class="st2" d="M111.4,254.7c0,0,2.9,28.3,15.5,28.7c12.6,0.4,18.3-2.3,23.1-2.8c4.8-0.6,14.6-0.7,8.7-23.1  c-5.9-22.5-3.3-27.1-3.3-27.1s-0.5-12.7-31.9-4c-19,5.3-12.3,25.9-12.3,25.9"/>
<radialGradient id="SVGID_2_" cx="65.14" cy="275.4323" r="26.7871" gradientTransform="matrix(0.9925 -0.1222 0.1222 0.9925 -17.0838 14.1651)" gradientUnits="userSpaceOnUse">
	<stop offset="5.749220e-02" style="stop-color:#AFBE12"/>
	<stop offset="0.4825" style="stop-color:#ADBC13"/>
	<stop offset="0.6652" style="stop-color:#A6B515"/>
	<stop offset="0.8015" style="stop-color:#9AA818"/>
	<stop offset="0.9139" style="stop-color:#8A971D"/>
	<stop offset="1" style="stop-color:#778322"/>
</radialGradient>
<path class="st3" d="M103.4,255.7c0,0,4.1,28.2-8.1,31.6c-12.2,3.4-18.3,2.3-23.1,2.8c-4.8,0.6-14.3,2.9-14-20.3  c0.3-23.2-3.3-27.1-3.3-27.1s-2.6-12.5,30-11.7c19.7,0.5,18.2,22.1,18.2,22.1"/>
<radialGradient id="SVGID_3_" cx="-11.4701" cy="226.5284" r="30.741" gradientTransform="matrix(0.9925 -0.1222 0.1222 0.9925 -17.0838 14.1651)" gradientUnits="userSpaceOnUse">
	<stop offset="5.749220e-02" style="stop-color:#AFBE12"/>
	<stop offset="0.4825" style="stop-color:#ADBC13"/>
	<stop offset="0.6652" style="stop-color:#A6B515"/>
	<stop offset="0.8015" style="stop-color:#9AA818"/>
	<stop offset="0.9139" style="stop-color:#8A971D"/>
	<stop offset="1" style="stop-color:#778322"/>
</radialGradient>
<path class="st4" d="M40.2,221.8c0,0-6.5,24-11,25.3c-4.5,1.3-18.6,8.2-20.9-7.2c-2.3-15.4,5-48.9,7.1-57.5c0,0,7.7-17.4,21.4-8.1  C50.4,183.6,40.2,221.8,40.2,221.8z"/>
<radialGradient id="SVGID_4_" cx="93.9597" cy="175.6463" r="94.9489" gradientTransform="matrix(0.9925 -0.1222 0.1483 1.2044 -21.6668 -23.0614)" gradientUnits="userSpaceOnUse">
	<stop offset="0" style="stop-color:#AFBE12"/>
	<stop offset="0.4145" style="stop-color:#ADBC13"/>
	<stop offset="0.6183" style="stop-color:#A6B415"/>
	<stop offset="0.7761" style="stop-color:#99A718"/>
	<stop offset="0.9095" style="stop-color:#88951D"/>
	<stop offset="1" style="stop-color:#778322"/>
</radialGradient>
<path class="st5" d="M125.1,52.6l-38.8,2.8l-0.1-0.5L81,55.9L79.1,56l0,0.2l-38.3,6.7c-26.9,7.5-53.3,69.1-29.4,135.7  c19.4,54,72.3,54.3,91.7,52.4l0,0.1c0,0,76.5-3.5,83.5-73.9C193.6,106.7,153,53.4,125.1,52.6z"/>
<radialGradient id="SVGID_5_" cx="94.0345" cy="35.8652" r="31.6922" gradientTransform="matrix(0.9925 -0.1222 0.1425 1.1574 -17.812 8.2496)" gradientUnits="userSpaceOnUse">
	<stop offset="0" style="stop-color:#AFBE12"/>
	<stop offset="0.2539" style="stop-color:#ABBA13"/>
	<stop offset="0.5208" style="stop-color:#9FAD17"/>
	<stop offset="0.7926" style="stop-color:#8B981C"/>
	<stop offset="1" style="stop-color:#778322"/>
</radialGradient>
<path class="st6" d="M47.7,62l36.1,13l33.6-20.2c1.4-5.6-4.8-17.5-4.8-17.5c-4,1.6-7.9,7.9-7.9,7.9c-6.8-30-36.9-42.6-36.9-42.6  c2.2,2.9,9.2,17.9,2.1,29c-8.4,13.2-8,18-8,18c-6.7-0.3-9.6-8.2-9.6-8.2C37.8,56.7,49,61.8,49,61.8"/>
<path class="st7" d="M186.5,178c0-0.3,0.1-0.5,0.1-0.8c7-70.4-33.6-123.8-61.4-124.5l-7.6,0.6c0.2-6-5-16-5-16  c-4,1.6-7.9,7.9-7.9,7.9c-6.8-30-36.9-42.6-36.9-42.6c2.2,2.9,9.2,17.9,2.1,29c-8.4,13.2-8,18-8,18c-6.7-0.3-9.6-8.2-9.6-8.2  c-12.3,13.3-5.8,18.9-3.7,20.3l-7.7,1.3c-26.9,7.5-53.3,69.1-29.4,135.7c0.1,0.3,0.2,0.6,0.3,0.9c-2.5,13.4-4.9,30.6-3.5,40.5  c2.3,15.4,16.4,8.6,20.9,7.2c2.2-0.7,5-6.8,7.1-12.9c6.3,4.9,13,8.5,19.8,11.1c1,3.2,2.4,10.1,2.2,24.6c-0.3,23.2,9.3,20.9,14,20.3  c4.8-0.6,10.9,0.6,23.1-2.8c12.2-3.4,8.1-31.6,8.1-31.6l-0.3-2.5c0,0,0.1-0.8,0-2.2c0.5,0,3.2-0.2,7.4-0.8c0.3,1.3,0.5,2,0.5,2  l0.3,2.5c0,0,2.9,28.3,15.5,28.7c12.6,0.4,18.3-2.3,23.1-2.8c4.8-0.6,14.6-0.7,8.7-23.1c-3.7-14-4.1-21-3.8-24.4  c5.9-4.1,11.4-9.2,16.3-15.4"/>
<g>
	<defs>
		<path id="SVGID_6_" d="M186.6,177.2c7-70.4-33.6-123.8-61.4-124.5l-7.6,0.6c0.2-6-5-16-5-16c-4,1.6-7.9,7.9-7.9,7.9    c-6.8-30-36.9-42.6-36.9-42.6c2.2,2.9,9.2,17.9,2.1,29c-8.4,13.2-8,18-8,18c-6.7-0.3-9.6-8.2-9.6-8.2    c-12.3,13.3-5.8,18.9-3.7,20.3l-7.7,1.3c-26.9,7.5-53.3,69.1-29.4,135.7c19.4,54,72.3,54.3,91.7,52.4l0,0.1"/>
	</defs>
	<clipPath id="SVGID_7_">
		<use xlink:href="#SVGID_6_" style="overflow:visible;"/>
	</clipPath>
</g>
<g>
	<path class="st8" d="M53.8,244.3c6.8,1.8,13.6,3.2,20.4,4.2c3.4,0.5,6.9,0.9,10.3,1.2c3.4,0.3,6.9,0.5,10.3,0.5   c3.4,0.1,6.9,0,10.3-0.3c1.7-0.1,3.4-0.3,5.1-0.4c1.7-0.2,3.4-0.4,5.1-0.7c6.8-1.1,13.5-2.9,20.1-5.4c-6,3.6-12.7,6.2-19.6,7.7   c-6.9,1.6-14,2.2-21.1,2.2c-7.1-0.1-14.1-0.9-21-2.4C66.9,249.4,60.1,247.4,53.8,244.3z"/>
</g>
<g>
	<path class="st9" d="M50.1,68.2"/>
</g>
<g>
	<path class="st8" d="M96.3,69.9c-1.5,2.4-3.6,4.3-6.1,5.8c-1.3,0.7-2.6,1.3-4.1,1.6c-1.4,0.4-2.9,0.6-4.4,0.6   c-2.9,0-5.8-0.6-8.4-1.8c-2.6-1.2-5-2.8-6.8-4.9c2.6,1.1,5.1,2,7.6,2.6c2.5,0.6,5.1,1,7.6,1c1.3,0,2.5-0.1,3.8-0.3   c1.2-0.2,2.5-0.6,3.7-1C91.6,72.6,93.9,71.3,96.3,69.9z"/>
</g>
<g>
	<path class="st10" d="M173.9,148.4c2.2,17.5-7.9,35.3-25.3,37.4c-17.4,2.1-35.5-12.1-37.7-29.7c-2.2-17.5,9.9-35.8,27.3-37.9   C155.6,116.1,171.7,130.9,173.9,148.4z"/>
	<path class="st10" d="M16.7,167.7c2.2,17.5,16.2,32.3,33.6,30.2c17.4-2.1,31.5-20.4,29.4-37.9S61.4,127.7,44,129.8   C26.6,131.9,14.6,150.2,16.7,167.7z"/>
	<path class="st10" d="M63.8,114.8c1.8,14.5,15,26.6,27.7,25c12.7-1.6,25.3-16.7,23.5-31.2c-1.8-14.5-16.2-26.5-28.9-25   C73.4,85.2,62,100.3,63.8,114.8z"/>
</g>
<ellipse transform="matrix(0.9925 -0.1222 0.1222 0.9925 -18.3485 18.5302)" class="st11" cx="141.9" cy="158.9" rx="12.2" ry="13.5"/>
<path class="st12" d="M64.4,200.9c0,0,11,16.1,37.8,13.6c26.6-4.1,33.4-22.3,33.4-22.3"/>
<ellipse transform="matrix(0.9925 -0.1222 0.1222 0.9925 -20.4136 7.4186)" class="st11" cx="50.3" cy="170.1" rx="12.2" ry="13.5"/>
<ellipse transform="matrix(0.9925 -0.1222 0.1222 0.9925 -14.0063 11.9716)" class="st11" cx="90.6" cy="120.2" rx="10.5" ry="11.6"/>
<path d="M15.1,286.8l0-0.2C15,286.6,15,286.9,15.1,286.8z"/>
<path class="st7" d="M160.7,207.4c14.8,7.5,43.3-19.9,43.3-19.9s17.8-17.3,16.8-21.9c-1-4.6-1.9-20.3-16.5-14.8  c-14.6,5.5-40.4,28.1-46.8,34"/>
<path d="M23,305.3c0.3,0.1,0.5,0.1,0.2-0.1C23.1,305.2,22.9,305.2,23,305.3z"/>
<path class="st10" d="M266.5,211.6"/>
<path class="st10" d="M296.1,177.5"/>
</svg>