<svg id="Layer_1" xmlns="http://www.w3.org/2000/svg" viewBox="0 0 156.364 147.239"><style>.st0{fill:#E4E4E5;} .st1{fill:#3E295E;} .st2{fill:#429946;} .st3{fill:#FFFFFF;} .st4{fill:#F5EB30;}</style><path class="st0" d="M150.973 56.32c-1.243-2.333-4.468-2.515-6.753-2.252-10.394 1.194-17.8 12.424-17.8 12.424s-12.183 2.388-15.17 2.626l-2.986.24s8.124-8.482 7.645-15.887c-.48-7.404-2.15-8.36-2.15-8.36s-9.556 13.137-14.334 6.69c-4.78-6.453-13.498-24.01-25.085-29.626 0 0-1.553 5.136-2.985 8.362-1.433 3.224-2.628 5.255-2.628 5.255L55.35 26.475s-12.065 13.02-13.618 27.83C40.18 69.118 20.71 88.23 12.108 88.47c0 0 10.87 12.422 19.59 14.214 8.104 1.665 12.075.237 12.596.027-.92.383-12.454 5.356-11.88 14.19.597 9.196.597 6.21.597 6.21s5.854-.358 10.87-5.973c5.018-5.613 6.45-12.422 6.45-12.422L47.346 125.5s7.765-1.674 9.915-2.27c2.15-.597 2.867-.48 2.867-.48l-4.54 9.678s15.53-4.27 22.457-1.077c6.928 3.195 8.242 4.064 8.242 4.064s8.36-9.555 17.678-13.26c9.317-3.702 11.826-3.464 11.826-3.464-1.654-2.43-3.97-4.94-5.224-7.563-.798-1.67 1.033-4.28 2.184-5.594 1.89-2.162 3.666-4.344 5.687-6.363 1.807-1.805 2.912-4.166 4.685-5.994 2.156-2.225 5.064-3.344 7.756-4.755 3.026-1.586 5.674-3.745 8.448-5.716 2.25-1.598 4.574-3.17 6.334-5.33 1.904-2.335 3.118-5.21 4.116-8.026.665-1.876 1.295-3.607 1.482-5.597.224-2.377.913-5.18-.285-7.43z"/><path class="st1" d="M63.634 26.07l-14.792-10.3s-13.34 14.396-15.057 30.773C32.068 62.92 10.54 84.053 1.03 84.32c0 0 12.02 13.734 21.66 15.715 9.642 1.98 14 0 14 0s-13.867 5.547-13.207 15.718c.66 10.17.66 6.868.66 6.868s6.472-.394 12.02-6.603c5.547-6.207 7.13-13.736 7.13-13.736l-3.3 22.982s8.585-1.85 10.962-2.51c2.377-.66 3.17-.528 3.17-.528l-5.02 10.7s17.17-4.723 24.83-1.192c7.66 3.533 9.115 4.49 9.115 4.49s9.245-10.563 19.547-14.66c10.302-4.094 13.076-3.83 13.076-3.83-1.83-2.687-4.39-5.464-5.776-8.362-.882-1.846 1.142-4.732 2.415-6.186 2.09-2.39 4.054-4.803 6.29-7.035 1.998-1.997 3.218-4.607 5.18-6.63 2.383-2.46 5.6-3.697 8.575-5.257 3.346-1.755 6.274-4.142 9.342-6.32 2.487-1.768 5.057-3.507 7.003-5.895 2.105-2.58 3.447-5.76 4.55-8.874.736-2.075 1.432-3.988 1.64-6.19.247-2.628 1.01-5.73-.316-8.214-1.375-2.58-4.94-2.78-7.467-2.492-11.493 1.32-19.68 13.737-19.68 13.737s-13.473 2.64-16.775 2.904l-3.303.263s8.982-9.378 8.453-17.566c-.528-8.19-2.378-9.245-2.378-9.245S102.86 50.9 97.58 43.77C92.294 36.634 82.653 17.22 69.84 11.01c0 0-1.718 5.68-3.302 9.246-1.584 3.57-2.906 5.813-2.906 5.813z"/><path class="st2" d="M70.346 71.48c-7.016 4.95-14.134 6.923-18.695 7.708 4.75-7.043 12.095-13.962 21.23-18.776 4.864-2.564 10.302-4.122 15.778-3.896-4.328 3.952-11.226 9.962-18.312 14.963zm79.728-7.93c3.628-9.59 2.86-19.434-8.778-12.912l-.265.155c1.066.728 1.45 2.874.847 5.173-.684 2.604-2.38 4.417-3.785 4.048-1.405-.37-1.99-2.782-1.305-5.387.132-.503.303-.976.5-1.41-8.42 6.195-10.784 13.403-10.784 13.403l-.397-4.228s-2.773 1.718-18.227 2.51c-14.296.735-16.836 1.124-18.81-4.154-1.598 1.49-3.437 3.126-5.49 4.827l.022-.017s12.124 9.792-1.4 18.03c-9.286 5.654-13.603-7.626-13.603-7.626l.05-.037c-5.975 3.328-12.512 5.948-19.156 6.803-3.752 6.838-4.928 13.48-2.767 18.1 4.755 10.17 20.868 16.113 33.15 6.737 0 0-2.243 4.623-9.376 6.604 0 0 19.417-1.056 29.058-6.87 9.642-5.81 16.642-15.056 16.642-15.056s-9.774 3.3-17.567 8.717c0 0 11.49-8.848 17.567-11.622 5.773-2.635 27.755-14.692 33.1-24.158-1.58-.335-5-.49-9.97 2.36-.375.214-.73.428-1.072.64.21 1.016.364 3.03.352 3.245-.065 1.124-.026 2.753-.723 3.713-1.825 2.514-2.3-2.527-4.22-3.64-3.216 2.563-6.296 5.125-14.298 8.104-.937.35-1.976.73-3.08 1.134-.095 1.018-.348 2.453-.4 2.62-.32 1.015-.663 2.516-1.525 3.234-2.16 1.8-1.575-2.47-2.843-4.118-4.126 1.497-8.762 3.18-13.26 4.858-.09 1.02-.354 2.525-.408 2.696-.32 1.014-.662 2.516-1.523 3.234-2.163 1.802-1.572-2.483-2.85-4.125-8.09 3.097-14.853 5.94-15.948 7.28-2.31 2.824.64 7.956-2.567 8.342-3.21.384-2.18-4.107-2.18-4.107.77-4.57 6.343-8.073 13.853-11.15.1-2.07-2.165-5.244.486-4.73 1.182.23 2.55 1.965 3.445 2.716.148.125.27.243.382.358 4.292-1.554 8.977-3.024 13.634-4.5.62-2.003-2.31-5.803.573-5.242 1.18.23 2.55 1.962 3.444 2.713.43.363.7.685.842.973l.155-.052-.085-.028c.2-.036.39-.09.586-.134 6.335-2.076 12.29-4.24 16.75-6.74 2.105-1.96-3.678-6.05-.234-6.223 1.203-.058 2.947 1.296 3.996 1.81.615.302.982.604 1.165.904 8.6-7.965 15.207-8.263 18.297-7.773zm-55.068-5.927c-.714-.16-1.423-.38-2.142-.555-.89.905-1.967 1.967-3.22 3.148.48.364.978.71 1.495 1.02.393.24.8.46 1.212.664.54-1.02 1.442-2.59 2.654-4.277z"/><path class="st3" d="M71.99 38.763c-1.084-.888-1.043-1.545-.515-2.71.593-1.305 1.4-3.25.452-4.582-.865-1.214-3.03-1.536-4.414-1.52-2.727.03-7.355 1.227-8.17 4.3-.412 1.563.292 2.82 1.463 3.81.882.745 2.564 1.05 3.164 1.93.903 1.324-.768 3.898 1.903 3.627 2.308-.236 10.06-1.613 6.116-4.854zm-7.672-.353c-1.336.153-1.788-1.774-.748-2.47 1.338-.89 2.567 2.26.748 2.47zm3.655-1.72c-1.06-.822.102-2.847 1.28-2.2 1.05.575.156 3.315-1.28 2.2zM73.28 24.576c.098-.42-.083-.425-.112-.84-.04-.59-.516-1.506.683-1.56 1.046-.046.82 1.082 1.23 1.625.542-.44 1.503-.737 1.532.236.03 1.04-1.33 1.06-1.914 1.5-1.42 1.073-1.382 3.163-2.695 4.35-2.688-1.518.817-3.336 1.277-5.31zM61.097 47.707c-.11.42.07.428.09.843.024.59.474 1.52-.726 1.54-1.045.02-.788-1.103-1.185-1.657-.553.425-1.522.697-1.525-.276-.002-1.04 1.36-1.024 1.954-1.45 1.448-1.032 1.466-3.124 2.81-4.274 2.65 1.592-.904 3.313-1.417 5.274zM54.185 31.372c-.43-.06-.415.122-.827.19-.582.098-1.45.657-1.616-.532-.146-1.036 1-.916 1.5-1.377-.49-.498-.877-1.426.09-1.548 1.03-.13 1.18 1.224 1.673 1.763 1.203 1.31 3.28 1.075 4.586 2.27-1.254 2.82-3.396-.496-5.405-.766zM79.512 40.65c.428.07.42-.113.832-.17.584-.082 1.468-.618 1.6.575.12 1.04-1.023.89-1.536 1.336.476.51.84 1.45-.13 1.546-1.035.103-1.148-1.255-1.626-1.808-1.167-1.343-3.25-1.163-4.522-2.392 1.33-2.788 3.38.587 5.382.913z"/><path class="st1" d="M81.953 64.222S65.79 62.41 57.75 69.302l-3.52 6.397s11.424-7.438 18.86-7.31c7.434.13 9.644 1.463 9.644 1.463l-.78-5.63z"/><g><path class="st3" d="M92 122.248c-3.13.91-6.632 1.646-10.298 1.904-3.564.252-6.933.325-9.935.3 1.243.908 2.366 1.764 3.294 2.52 4.793.09 9.642-.106 13.514-.88 1.04-1.186 2.185-2.473 3.425-3.844zM91.594 118.45c2.144-.782 4.062-1.522 5.774-2.21 4.802-5.696 6.657-9.142 6.657-9.142s-8.067 8.31-23.58 10.25c-14.452 1.807-23.144-2.786-25.12-3.984 1.295.83 5.323 3.42 9.608 6.315 8.436.708 20.22 1.117 26.66-1.23zM55.324 113.365l-.435-.278s.146.103.434.278zM81.932 130.915c-.83.06-1.647.108-2.454.147 2.085 2.085 2.547 2.804 2.547 2.804s.952-1.2 2.66-3.237c-.906.12-1.824.22-2.753.285z"/></g><g><path class="st4" d="M149.303 65.18c-1.008-.215-2.768-.352-5.198.314-1.912.76-3.74 1.6-5.53 2.496-.1.062-.213.125-.314.188.212 1.017.365 3.032.353 3.246-.065 1.124-.026 2.753-.723 3.713-1.825 2.514-2.3-2.527-4.22-3.64-3.216 2.563-6.296 5.125-14.298 8.104-.936.35-1.975.73-3.078 1.135-.096 1.018-.35 2.453-.4 2.62-.32 1.015-.664 2.516-1.526 3.234-2.16 1.798-1.575-2.47-2.843-4.12-4.126 1.498-8.762 3.18-13.26 4.86-.09 1.02-.354 2.524-.408 2.695-.32 1.014-.662 2.516-1.523 3.234-2.164 1.8-1.573-2.484-2.85-4.126-8.092 3.097-14.854 5.94-15.95 7.28-2.31 2.824.642 7.956-2.566 8.342-2.076.248-2.377-1.542-2.33-2.84-3.187 2.258-11.526 3.264-9.052 10.18 5.362.62 11.163-.614 16.295-4.533 0 0-2.243 4.623-9.376 6.604 0 0 19.416-1.055 29.057-6.87 9.643-5.81 16.643-15.055 16.643-15.055s-9.774 3.3-17.567 8.717c0 0 11.49-8.85 17.567-11.624 5.772-2.635 27.754-14.69 33.1-24.157z"/></g><path class="st1" d="M91.758 63.08s4.778-10.494 12.225-12.99V52.1l3.637-2.007-2.943 3.22 4.33-.693-2.772 1.732 2.77.345s-5.362.517-10.054 5.02l-4.692 4.506-2.5-1.14z"/><path class="st3" d="M101.924 57.392c-.985.625-1.994 1.383-2.975 2.325-1.758 1.686-2.858 2.74-3.546 3.402.83.266 1.754.474 2.167.194.3-.202.172-.59.27-.88.122-.36.288-.452.58-.654.544-.377 1.415-.68 1.985-.144.324.304.363.708.3 1.124-.08.537-.353.673.267.807.787.168 1.658-.203 2.448-.22.3-.008.598-.014.896-.02.91-.023.868-.7.96-1.52.123-1.112-.1-2.03-.786-2.947-.645-.86-1.57-1.29-2.566-1.468z"/></svg>